<?xml version="1.0" encoding="UTF-8"?>
<svg width="24px" height="18px" viewBox="0 0 24 18" version="1.1" xmlns="http://www.w3.org/2000/svg" xmlns:xlink="http://www.w3.org/1999/xlink">
    <!-- Generator: Sketch 55.1 (78136) - https://sketchapp.com -->
    <title>Combined Shape</title>
    <desc>Created with Sketch.</desc>
    <g id="Page-1" stroke="none" stroke-width="1" fill="none" fill-rule="evenodd">
        <g id="HOME" transform="translate(-603.000000, -4038.000000)" fill="#FFFFFF">
            <g id="Group-8" transform="translate(603.000000, 3995.000000)">
                <g id="Group-4" transform="translate(0.000000, 43.000000)">
                    <g id="002-envelope" transform="translate(12.000000, 9.000000) scale(-1, 1) translate(-12.000000, -9.000000) ">
                        <path d="M2.30353701,5.60527826 C1.7499493,5.24367112 1.22749761,4.74624218 0.736592386,4.11344382 C0.245569886,3.48058891 -5.32907052e-15,2.89285714 -5.32907052e-15,2.35036161 C-5.32907052e-15,1.67888627 0.185291509,1.11920097 0.555698618,0.671475343 C0.926281636,0.223749721 1.45535926,-6.92779167e-14 2.14275558,-6.92779167e-14 L21.8570099,-6.92779167e-14 C22.4371599,-6.92779167e-14 22.9394993,0.202319055 23.3636761,0.606957165 C23.7879116,1.01159528 24,1.49822406 24,2.06656079 C24,2.74663102 23.781227,3.3966757 23.3435051,4.01646864 C22.9060765,4.63626159 22.3615774,5.16592134 21.7099494,5.6048259 C18.3527722,7.85227508 16.2633759,9.25154487 15.4420536,9.80240911 C15.3529261,9.86274294 15.1630609,9.99392801 14.8728686,10.1964732 C14.5826177,10.3987923 14.3416801,10.5624909 14.149704,10.6872864 C13.957552,10.8120818 13.7255272,10.9518618 13.453219,11.106909 C13.1810868,11.2615604 12.9240828,11.3781568 12.6831452,11.4552845 C12.4421489,11.5330343 12.2188609,11.5714286 12.0133985,11.5714286 L11.9866015,11.5714286 C11.7811391,11.5714286 11.558027,11.5330343 11.3168548,11.4552845 C11.0759172,11.3781568 10.8191478,11.2617866 10.546781,11.106909 C10.2742383,10.952088 10.0422134,10.8120818 9.85023736,10.6872864 C9.65831992,10.5624909 9.41714777,10.3987923 9.12713138,10.1964732 C8.83693907,9.99415419 8.64730846,9.86274294 8.55794635,9.80240911 C7.7455369,9.25154487 6.5757963,8.46584804 5.04890044,7.44560133 C3.52229777,6.42535463 2.60703981,5.81178167 2.30353701,5.60527826 Z M22.6605066,6.31536815 C23.1697064,5.9650487 23.6161065,5.57389699 24,5.14285714 L24,15.8435026 C24,16.4367503 23.790433,16.9440851 23.3705366,17.3665691 C22.9509334,17.788817 22.4463659,18 21.8572444,18 L2.14299012,18 C1.55363412,18 1.04906658,17.788817 0.629404766,17.3665691 C0.209801589,16.9443212 -5.32907052e-15,16.4367503 -5.32907052e-15,15.8435026 L-5.32907052e-15,5.14285714 C0.392806272,5.58286593 0.843838642,5.97401763 1.35274529,6.31536815 C4.58485076,8.52532511 6.80365794,10.0756524 8.00916685,10.965111 C8.51789759,11.3421602 8.93087483,11.6367779 9.24786404,11.8476658 C9.56485325,12.0587898 9.98674325,12.2745162 10.5133581,12.4944321 C11.0401489,12.714761 11.5312301,12.8246895 11.9866015,12.8246895 L12.013633,12.8246895 C12.4691804,12.8246895 12.960027,12.714761 13.4866419,12.4944321 C14.0136672,12.2745162 14.4351468,12.0587898 14.7523705,11.8476658 C15.0693597,11.6367779 15.4821024,11.3421602 15.9910677,10.965111 C17.5087576,9.85963095 19.732373,8.30983468 22.6605066,6.31536815 Z" id="Combined-Shape"></path>
                    </g>
                </g>
            </g>
        </g>
    </g>
</svg>