<?xml version="1.0" encoding="UTF-8"?>
<svg width="47px" height="47px" viewBox="0 0 47 47" version="1.1" xmlns="http://www.w3.org/2000/svg" xmlns:xlink="http://www.w3.org/1999/xlink">
    <!-- Generator: Sketch 55.1 (78136) - https://sketchapp.com -->
    <title>Combined Shape</title>
    <desc>Created with Sketch.</desc>
    <g id="Page-1" stroke="none" stroke-width="1" fill="none" fill-rule="evenodd">
        <g id="HOME" transform="translate(-1023.000000, -3995.000000)" fill="#FFFFFF">
            <g id="Group-12" transform="translate(1023.000000, 3995.000000)">
                <path d="M23.5,47 C10.5213084,47 0,36.4786916 0,23.5 C0,10.5213084 10.5213084,0 23.5,0 C36.4786916,0 47,10.5213084 47,23.5 C47,36.4786916 36.4786916,47 23.5,47 Z M29.5477217,12.0051044 L26.6699507,12 C23.4359606,12 21.3457512,14.2220296 21.3457512,17.6601936 L21.3457512,20.2698422 L18.4519704,20.2698422 C18.2019704,20.2698422 18,20.4804006 18,20.7397703 L18,24.5205704 C18,24.7799401 18.2019704,24.9892224 18.4519704,24.9892224 L21.3457512,24.9892224 L21.3457512,34.5300719 C21.3457512,34.7894416 21.5489532,35 21.7989532,35 L25.5741995,35 C25.8245074,35 26.0277094,34.7894416 26.0277094,34.5300719 L26.0277094,24.9892224 L29.4107143,24.9892224 C29.6610222,24.9892224 29.8642241,24.7799401 29.8642241,24.5205704 L29.8654557,20.7397703 C29.8654557,20.6150304 29.8171182,20.4953949 29.731835,20.4070242 C29.6477833,20.3196105 29.5323276,20.2698422 29.4119458,20.2698422 L26.0277094,20.2698422 L26.0277094,18.0577024 C26.0277094,16.9947014 26.2718596,16.453949 27.6080665,16.453949 L29.5477217,16.453949 C29.796798,16.453949 30,16.2433906 30,15.985297 L30,12.4734375 C30,12.2156629 29.7980296,12.0051044 29.5477217,12.0051044 Z" id="Combined-Shape"></path>
            </g>
        </g>
    </g>
</svg>