<?xml version="1.0" encoding="UTF-8"?>
<svg width="47px" height="47px" viewBox="0 0 47 47" version="1.1" xmlns="http://www.w3.org/2000/svg" xmlns:xlink="http://www.w3.org/1999/xlink">
    <!-- Generator: Sketch 55.1 (78136) - https://sketchapp.com -->
    <title>Group 11</title>
    <desc>Created with Sketch.</desc>
    <g id="Page-1" stroke="none" stroke-width="1" fill="none" fill-rule="evenodd">
        <g id="HOME" transform="translate(-1093.000000, -3995.000000)" fill="#FFFFFF">
            <g id="Group-11" transform="translate(1093.000000, 3995.000000)">
                <path d="M23.5,47 C10.5213084,47 0,36.4786916 0,23.5 C0,10.5213084 10.5213084,0 23.5,0 C36.4786916,0 47,10.5213084 47,23.5 C47,36.4786916 36.4786916,47 23.5,47 Z M28.9286892,12 L19.0713108,12 C15.7231717,12 13,14.8476778 13,18.3472795 L13,28.6527205 C13,32.1530478 15.7231717,35 19.0713108,35 L28.9286892,35 C32.2768283,35 35,32.1523222 35,28.6527205 L35,18.3472795 C35,14.8476778 32.2768283,12 28.9286892,12 Z M33.0480611,28.6527205 C33.0480611,31.0276899 31.2003991,32.9593366 28.9286892,32.9593366 L19.0713108,32.9593366 C16.7994274,32.9593366 14.9519389,31.0276899 14.9519389,28.6527205 L14.9519389,18.3472795 C14.9519389,15.9728542 16.7994274,14.0406634 19.0713108,14.0406634 L28.9286892,14.0406634 C31.1998785,14.0406634 33.0480611,15.9728542 33.0480611,18.3472795 L33.0480611,28.6527205 Z M24.392767,17.5517241 C21.1434573,17.5517241 18.5,20.2200415 18.5,23.499909 C18.5,26.7799585 21.1434573,29.4482759 24.392767,29.4482759 C27.642257,29.4482759 30.2857143,26.7799585 30.2857143,23.499909 C30.2857143,20.2200415 27.642257,17.5517241 24.392767,17.5517241 Z M24.392767,27.4000655 C22.2622731,27.4000655 20.5291276,25.6506208 20.5291276,23.499909 C20.5291276,21.3493792 22.2622731,19.5999345 24.392767,19.5999345 C26.5234411,19.5999345 28.2565867,21.3493792 28.2565867,23.499909 C28.2565867,25.6506208 26.5234411,27.4000655 24.392767,27.4000655 Z M29.8928571,15.9655172 C29.5831429,15.9655172 29.2791429,16.0921254 29.0602857,16.3136176 C28.8404286,16.5343887 28.7142857,16.8413918 28.7142857,17.1551724 C28.7142857,17.4676552 28.8404286,17.7746583 29.0602857,17.9965831 C29.2791429,18.2174984 29.5831429,18.3448276 29.8928571,18.3448276 C30.2037143,18.3448276 30.5067143,18.2174984 30.7265714,17.9965831 C30.9458571,17.7746583 31.0714286,17.4676552 31.0714286,17.1551724 C31.0714286,16.8413918 30.9458571,16.5343887 30.7265714,16.3136176 C30.5078571,16.0921254 30.2037143,15.9655172 29.8928571,15.9655172 Z" id="Combined-Shape"></path>
            </g>
        </g>
    </g>
</svg>