<?xml version="1.0" encoding="UTF-8"?>
<svg width="20px" height="29px" viewBox="0 0 20 29" version="1.1" xmlns="http://www.w3.org/2000/svg" xmlns:xlink="http://www.w3.org/1999/xlink">
    <!-- Generator: Sketch 55.1 (78136) - https://sketchapp.com -->
    <title>003-facebook-placeholder-for-locate-places-on-maps</title>
    <desc>Created with Sketch.</desc>
    <g id="Page-1" stroke="none" stroke-width="1" fill="none" fill-rule="evenodd">
        <g id="HOME" transform="translate(-603.000000, -4076.000000)" fill="#FFFFFF">
            <g id="Group-8" transform="translate(603.000000, 3995.000000)">
                <g id="Group-6" transform="translate(0.000000, 81.000000)">
                    <path d="M19.5274275,7.21776279 C19.4242395,6.83100061 19.2143198,6.41878578 19.0590737,6.0576448 C17.2015204,1.59837543 13.1424256,0 9.86504558,0 C5.47731846,0 0.64536814,2.93860037 0,8.99624517 L0,10.2338167 C0,10.2854805 0.0178026772,10.7493592 0.0431989133,10.9814671 C0.404736693,13.8684036 2.68516683,16.9363742 4.3884021,19.8233108 C6.22089663,22.9159755 8.12190193,25.958662 10.0057795,29 C11.1672566,27.0154524 12.3244306,25.004525 13.4594989,23.0710512 C13.7689786,22.5038449 14.1279008,21.9368915 14.4377181,21.3953065 C14.6440097,21.0345026 15.0385373,20.6740359 15.2185047,20.3385161 C17.0509148,16.9877009 20,13.6109274 20,10.2854805 L20,8.919213 C20,8.55874626 19.5528237,7.29546921 19.5274275,7.21776279 Z M9.87207415,13.1818182 C8.68880252,13.1818182 7.39375251,12.6098928 6.75451025,11.0304389 C6.65929737,10.7791179 6.66680603,10.2752789 6.66680603,10.2293393 L6.66680603,9.51974479 C6.66680603,7.5066332 8.43544336,6.59090909 9.97425383,6.59090909 C11.8683709,6.59090909 13.3333333,8.05581327 13.3333333,9.88651328 C13.3333333,11.7175874 11.7664235,13.1818182 9.87207415,13.1818182 Z" id="003-facebook-placeholder-for-locate-places-on-maps"></path>
                </g>
            </g>
        </g>
    </g>
</svg>