<?xml version="1.0" encoding="UTF-8"?>
<svg width="24px" height="23px" viewBox="0 0 24 23" version="1.1" xmlns="http://www.w3.org/2000/svg" xmlns:xlink="http://www.w3.org/1999/xlink">
    <!-- Generator: Sketch 55.1 (78136) - https://sketchapp.com -->
    <title>Fill 1</title>
    <desc>Created with Sketch.</desc>
    <g id="Page-1" stroke="none" stroke-width="1" fill="none" fill-rule="evenodd">
        <g id="HOME" transform="translate(-603.000000, -3995.000000)" fill="#FFFFFF">
            <g id="Group-8" transform="translate(603.000000, 3995.000000)">
                <g id="Group-2">
                    <g id="001-phone">
                        <path d="M23.9886311,18.1515171 C24.0392792,18.5250974 23.9207025,18.8499586 23.6328491,19.1261503 L20.2536982,22.3420168 C20.101235,22.5044972 19.9022233,22.6427423 19.656715,22.7562546 C19.4110511,22.869966 19.1697981,22.9430697 18.9326446,22.975516 C18.9158311,22.975516 18.864716,22.9797957 18.7800258,22.987957 C18.6954912,22.9959193 18.585425,23 18.4499829,23 C18.1280874,23 17.6071282,22.9473494 16.8873131,22.8417994 C16.1672904,22.7360503 15.2867091,22.4761315 14.2449984,22.0620928 C13.2032877,21.6478053 12.0218796,21.0263491 10.7006185,20.1980726 C9.3795649,19.3699454 7.97356162,18.2327323 6.48307569,16.7870803 C5.29741234,15.666389 4.31506784,14.5943174 3.5358865,13.5710645 C2.75665327,12.5475627 2.13009081,11.6014445 1.65573206,10.7325603 C1.1814252,9.86342737 0.82564317,9.07575853 0.588697317,8.36910591 C0.351491996,7.66250306 0.190570163,7.05348793 0.105828031,6.54186149 C0.021085898,6.03018527 -0.0127486828,5.62799045 0.00427239464,5.33562537 C0.021085898,5.0432603 0.0295964367,4.88097901 0.0295964367,4.84848295 C0.0634829111,4.62106024 0.139662611,4.38955686 0.258291219,4.1541221 C0.376867932,3.91853806 0.520768688,3.72764232 0.690252953,3.5814349 L4.06940387,0.340935006 C4.3065573,0.113512297 4.5775972,0 4.88247168,0 C5.10260403,0 5.29741234,0.0608119365 5.46668903,0.182684631 C5.6361214,0.304408032 5.78007405,0.45464636 5.89865077,0.633300085 L8.61719706,5.57942053 C8.76960836,5.83928954 8.81200537,6.12349328 8.74428432,6.43218104 C8.67656326,6.7407195 8.5326625,7.00058852 8.31232258,7.21173831 L7.06744872,8.40568265 C7.03361414,8.43812895 7.00382725,8.49102837 6.97850321,8.56408231 C6.95312727,8.63718603 6.94036146,8.69804773 6.94036146,8.74681671 C7.00808252,9.08780148 7.16049381,9.47775429 7.39769913,9.91627703 C7.60101798,10.3060308 7.914403,10.7811303 8.3378542,11.3415755 C8.76130539,11.9020206 9.36254382,12.5475627 10.141777,13.2785003 C10.9039373,14.0257108 11.5814073,14.6063603 12.1743428,15.0205981 C12.7670188,15.4346866 13.2624463,15.7394927 13.6605735,15.9342701 C14.0587006,16.1292465 14.3635751,16.2470385 14.5751969,16.2874968 L14.8926296,16.3485078 C14.9265161,16.3485078 14.9818346,16.3362658 15.0578586,16.3119809 C15.1340902,16.2874968 15.1892011,16.2590814 15.2230876,16.2266351 L16.6712284,14.8133797 C16.9763105,14.5535107 17.331833,14.4236259 17.7384707,14.4236259 C18.0263241,14.4236259 18.254967,14.4722456 18.4242437,14.5698333 L18.4497753,14.5698333 L23.3532987,17.3472767 C23.7090807,17.5587748 23.9207025,17.8266559 23.9886311,18.1515171 Z" id="Fill-1"></path>
                    </g>
                </g>
            </g>
        </g>
    </g>
</svg>